<svg xmlns="http://www.w3.org/2000/svg" xmlns:xlink="http://www.w3.org/1999/xlink" width="1024" zoomAndPan="magnify" viewBox="0 0 768 767.999994" height="1024" preserveAspectRatio="xMidYMid meet" version="1.0"><defs><g/><clipPath id="53912c0559"><path d="M 0 82.558594 L 161 82.558594 L 161 198 L 0 198 Z M 0 82.558594 " clip-rule="nonzero"/></clipPath><clipPath id="1eb8e80fc0"><path d="M 544 603 L 627 603 L 627 685.558594 L 544 685.558594 Z M 544 603 " clip-rule="nonzero"/></clipPath><clipPath id="43a20cdcb8"><path d="M 279 603 L 362 603 L 362 685.558594 L 279 685.558594 Z M 279 603 " clip-rule="nonzero"/></clipPath><clipPath id="1bec7dd9ac"><path d="M 61.058594 78 L 705 78 L 705 497 L 61.058594 497 Z M 61.058594 78 " clip-rule="nonzero"/></clipPath></defs><g clip-path="url(#53912c0559)"><path fill="#ffffff" d="M 86.714844 117.808594 L 17.523438 117.808594 C 7.851562 117.808594 0 109.960938 0.00390625 100.289062 C 0.00390625 90.613281 7.847656 82.769531 17.523438 82.765625 L 96.839844 82.765625 C 103.09375 82.765625 108.890625 86.113281 112.015625 91.527344 L 158.089844 171.339844 C 162.921875 179.707031 160.039062 190.449219 151.664062 195.277344 C 149.003906 196.808594 145.996094 197.621094 142.925781 197.621094 C 136.664062 197.617188 130.871094 194.300781 127.730469 188.863281 Z M 86.714844 117.808594 " fill-opacity="1" fill-rule="evenodd"/></g><path fill="#ffffff" d="M 676.707031 586.15625 L 271.996094 586.15625 C 238.578125 586.15625 211.382812 558.980469 211.382812 525.558594 C 211.382812 492.128906 238.574219 464.957031 271.996094 464.957031 C 281.671875 464.957031 289.519531 472.800781 289.519531 482.476562 C 289.519531 492.148438 281.667969 499.996094 271.996094 499.996094 C 257.90625 499.996094 246.425781 511.457031 246.425781 525.554688 C 246.425781 539.648438 257.90625 551.113281 271.996094 551.113281 L 676.707031 551.113281 C 686.378906 551.113281 694.226562 558.960938 694.226562 568.632812 C 694.230469 578.304688 686.378906 586.15625 676.707031 586.15625 Z M 676.707031 586.15625 " fill-opacity="1" fill-rule="evenodd"/><path fill="#ffffff" d="M 525.242188 286.371094 L 411.410156 400.214844 C 409.386719 402.238281 406.652344 403.375 403.789062 403.375 C 400.925781 403.375 398.191406 402.238281 396.167969 400.214844 L 368.367188 372.414062 C 364.15625 368.203125 364.15625 361.378906 368.367188 357.167969 C 372.5625 352.953125 379.394531 352.957031 383.609375 357.167969 L 403.789062 377.339844 L 510.007812 271.121094 C 514.222656 266.910156 521.050781 266.910156 525.242188 271.121094 C 529.453125 275.328125 529.453125 282.160156 525.242188 286.371094 Z M 446.808594 207.917969 C 376.363281 207.917969 319.0625 265.226562 319.0625 335.667969 C 319.0625 406.113281 376.363281 463.421875 446.808594 463.421875 C 517.253906 463.417969 574.554688 406.113281 574.554688 335.667969 C 574.550781 265.222656 517.246094 207.917969 446.808594 207.917969 Z M 446.808594 207.917969 " fill-opacity="1" fill-rule="evenodd"/><path fill="#ffffff" d="M 592.257812 335.667969 C 592.257812 418.003906 525.277344 484.988281 442.945312 484.984375 C 360.613281 484.984375 293.632812 418.003906 293.632812 335.667969 C 293.632812 253.332031 360.613281 186.351562 442.945312 186.351562 C 525.277344 186.351562 592.257812 253.335938 592.257812 335.667969 Z M 117.890625 171.339844 L 210.910156 458.386719 C 219.109375 483.664062 241.554688 499.996094 268.136719 499.996094 L 617.75 499.996094 C 644.332031 499.996094 666.777344 483.664062 674.976562 458.390625 L 768 171.339844 Z M 117.890625 171.339844 " fill-opacity="1" fill-rule="evenodd"/><g clip-path="url(#1eb8e80fc0)"><path fill="#ffffff" d="M 585.28125 603.425781 C 562.730469 603.425781 544.375 621.777344 544.375 644.328125 C 544.375 666.878906 562.726562 685.226562 585.28125 685.226562 C 607.832031 685.226562 626.164062 666.878906 626.164062 644.328125 C 626.164062 621.777344 607.832031 603.429688 585.28125 603.425781 Z M 585.28125 603.425781 " fill-opacity="1" fill-rule="evenodd"/></g><g clip-path="url(#43a20cdcb8)"><path fill="#ffffff" d="M 320.355469 603.425781 C 297.804688 603.425781 279.449219 621.777344 279.449219 644.328125 C 279.449219 666.878906 297.800781 685.226562 320.355469 685.226562 C 342.90625 685.226562 361.238281 666.878906 361.238281 644.328125 C 361.238281 621.777344 342.90625 603.429688 320.355469 603.425781 Z M 320.355469 603.425781 " fill-opacity="1" fill-rule="evenodd"/></g><g clip-path="url(#1bec7dd9ac)"><path fill="#ffffff" d="M 642.582031 190.695312 L 262.960938 190.695312 C 262.300781 190.695312 261.644531 190.726562 260.988281 190.792969 C 260.332031 190.855469 259.683594 190.953125 259.035156 191.082031 C 258.390625 191.210938 257.753906 191.371094 257.121094 191.5625 C 256.492188 191.753906 255.871094 191.972656 255.265625 192.226562 C 254.65625 192.476562 254.0625 192.757812 253.480469 193.070312 C 252.898438 193.378906 252.335938 193.71875 251.789062 194.085938 C 251.238281 194.449219 250.710938 194.84375 250.203125 195.261719 C 249.691406 195.679688 249.207031 196.121094 248.738281 196.585938 C 248.273438 197.050781 247.832031 197.539062 247.414062 198.046875 C 246.996094 198.558594 246.605469 199.085938 246.238281 199.632812 C 245.871094 200.179688 245.535156 200.746094 245.222656 201.328125 C 244.914062 201.90625 244.632812 202.503906 244.378906 203.109375 C 244.128906 203.71875 243.90625 204.339844 243.714844 204.96875 C 243.523438 205.597656 243.363281 206.238281 243.234375 206.882812 C 243.105469 207.53125 243.011719 208.179688 242.945312 208.835938 C 242.882812 209.492188 242.847656 210.148438 242.847656 210.808594 C 242.847656 211.464844 242.882812 212.125 242.945312 212.777344 C 243.011719 213.433594 243.105469 214.085938 243.234375 214.730469 C 243.363281 215.375 243.523438 216.015625 243.714844 216.644531 C 243.90625 217.277344 244.128906 217.894531 244.378906 218.503906 C 244.632812 219.113281 244.914062 219.707031 245.222656 220.289062 C 245.535156 220.867188 245.871094 221.433594 246.238281 221.980469 C 246.605469 222.527344 246.996094 223.058594 247.414062 223.566406 C 247.832031 224.074219 248.273438 224.5625 248.738281 225.027344 C 249.207031 225.496094 249.691406 225.9375 250.203125 226.355469 C 250.710938 226.773438 251.238281 227.164062 251.789062 227.53125 C 252.335938 227.894531 252.898438 228.234375 253.480469 228.542969 C 254.0625 228.855469 254.65625 229.136719 255.265625 229.386719 C 255.871094 229.640625 256.492188 229.863281 257.121094 230.054688 C 257.753906 230.246094 258.390625 230.402344 259.035156 230.53125 C 259.683594 230.660156 260.332031 230.757812 260.988281 230.824219 C 261.644531 230.886719 262.300781 230.917969 262.960938 230.917969 L 642.582031 230.917969 C 643.042969 230.917969 643.507812 230.933594 643.96875 230.960938 C 644.433594 230.992188 644.894531 231.035156 645.351562 231.09375 C 645.8125 231.152344 646.269531 231.226562 646.726562 231.3125 C 647.179688 231.398438 647.632812 231.5 648.082031 231.617188 C 648.53125 231.734375 648.972656 231.863281 649.414062 232.007812 C 649.855469 232.152344 650.289062 232.3125 650.71875 232.484375 C 651.148438 232.65625 651.574219 232.84375 651.992188 233.042969 C 652.410156 233.242188 652.824219 233.453125 653.226562 233.679688 C 653.632812 233.90625 654.03125 234.144531 654.417969 234.394531 C 654.808594 234.644531 655.191406 234.90625 655.5625 235.183594 C 655.9375 235.457031 656.300781 235.746094 656.65625 236.042969 C 657.007812 236.339844 657.355469 236.648438 657.6875 236.96875 C 658.023438 237.289062 658.347656 237.621094 658.664062 237.960938 C 658.976562 238.304688 659.28125 238.652344 659.570312 239.015625 C 659.863281 239.375 660.144531 239.742188 660.410156 240.121094 C 660.679688 240.5 660.933594 240.886719 661.179688 241.277344 C 661.421875 241.671875 661.652344 242.074219 661.871094 242.484375 C 662.089844 242.894531 662.292969 243.308594 662.484375 243.730469 C 662.675781 244.152344 662.855469 244.582031 663.019531 245.011719 C 663.183594 245.445312 663.332031 245.886719 663.46875 246.328125 C 663.605469 246.769531 663.726562 247.21875 663.835938 247.667969 C 663.945312 248.117188 664.039062 248.574219 664.117188 249.027344 C 664.195312 249.484375 664.261719 249.945312 664.308594 250.40625 C 664.359375 250.867188 664.394531 251.328125 664.414062 251.789062 C 664.4375 252.253906 664.441406 252.714844 664.433594 253.179688 C 664.421875 253.644531 664.398438 254.105469 664.363281 254.566406 C 664.324219 255.03125 664.269531 255.488281 664.203125 255.949219 C 664.132812 256.40625 664.050781 256.863281 663.957031 257.316406 C 663.859375 257.769531 663.746094 258.21875 663.621094 258.664062 C 663.496094 259.109375 663.355469 259.550781 663.203125 259.988281 C 663.050781 260.425781 662.882812 260.859375 662.703125 261.285156 C 662.519531 261.710938 662.328125 262.132812 662.117188 262.546875 C 639.132812 308.675781 606.3125 411.582031 589.921875 444.335938 C 589.472656 445.238281 588.960938 446.105469 588.386719 446.9375 C 587.816406 447.769531 587.191406 448.554688 586.507812 449.300781 C 585.828125 450.046875 585.097656 450.738281 584.320312 451.382812 C 583.542969 452.027344 582.726562 452.613281 581.867188 453.144531 C 581.007812 453.675781 580.117188 454.144531 579.195312 454.550781 C 578.273438 454.957031 577.324219 455.296875 576.355469 455.574219 C 575.382812 455.847656 574.398438 456.054688 573.398438 456.195312 C 572.398438 456.332031 571.394531 456.402344 570.386719 456.402344 L 290.910156 456.402344 C 289.820312 456.402344 288.738281 456.324219 287.660156 456.164062 C 286.582031 456.003906 285.523438 455.761719 284.480469 455.441406 C 283.4375 455.125 282.425781 454.730469 281.445312 454.257812 C 280.460938 453.789062 279.519531 453.246094 278.617188 452.636719 C 277.714844 452.023438 276.863281 451.351562 276.0625 450.609375 C 275.261719 449.871094 274.523438 449.078125 273.839844 448.230469 C 273.15625 447.378906 272.542969 446.484375 271.996094 445.542969 C 271.445312 444.601562 270.972656 443.625 270.570312 442.609375 C 270.570312 442.382812 207.703125 160.355469 207.703125 160.355469 C 207.070312 157.492188 206.316406 154.660156 205.445312 151.859375 C 204.570312 149.058594 203.582031 146.300781 202.472656 143.585938 C 201.367188 140.871094 200.148438 138.207031 198.816406 135.59375 C 197.484375 132.980469 196.042969 130.429688 194.496094 127.9375 C 192.945312 125.445312 191.296875 123.023438 189.542969 120.675781 C 187.792969 118.324219 185.941406 116.050781 183.996094 113.855469 C 182.050781 111.660156 180.015625 109.550781 177.894531 107.527344 C 175.769531 105.503906 173.566406 103.574219 171.277344 101.738281 C 168.992188 99.902344 166.632812 98.164062 164.199219 96.527344 C 161.765625 94.890625 159.265625 93.363281 156.703125 91.9375 C 154.140625 90.511719 151.519531 89.195312 148.847656 87.992188 C 146.171875 86.789062 143.453125 85.699219 140.683594 84.726562 C 137.917969 83.753906 135.117188 82.898438 132.277344 82.160156 C 129.4375 81.425781 126.574219 80.808594 123.683594 80.316406 C 120.792969 79.820312 117.886719 79.449219 114.960938 79.199219 C 112.039062 78.953125 109.113281 78.828125 106.179688 78.828125 L 81.195312 78.828125 C 80.527344 78.796875 79.859375 78.800781 79.191406 78.839844 C 78.523438 78.875 77.859375 78.949219 77.199219 79.058594 C 76.539062 79.164062 75.886719 79.308594 75.242188 79.480469 C 74.597656 79.65625 73.964844 79.867188 73.339844 80.109375 C 72.714844 80.351562 72.105469 80.625 71.511719 80.929688 C 70.917969 81.234375 70.339844 81.570312 69.777344 81.933594 C 69.21875 82.300781 68.679688 82.691406 68.160156 83.113281 C 67.640625 83.535156 67.144531 83.984375 66.671875 84.457031 C 66.199219 84.929688 65.753906 85.425781 65.332031 85.945312 C 64.910156 86.464844 64.519531 87.003906 64.152344 87.566406 C 63.789062 88.125 63.453125 88.703125 63.148438 89.300781 C 62.847656 89.894531 62.574219 90.503906 62.332031 91.128906 C 62.089844 91.75 61.882812 92.386719 61.707031 93.03125 C 61.535156 93.675781 61.394531 94.328125 61.285156 94.988281 C 61.179688 95.648438 61.105469 96.3125 61.070312 96.980469 C 61.03125 97.648438 61.027344 98.316406 61.058594 98.984375 C 61.0625 99.644531 61.09375 100.300781 61.160156 100.953125 C 61.226562 101.609375 61.324219 102.261719 61.453125 102.90625 C 61.582031 103.550781 61.746094 104.1875 61.9375 104.816406 C 62.128906 105.449219 62.351562 106.066406 62.605469 106.675781 C 62.855469 107.28125 63.136719 107.875 63.449219 108.457031 C 63.757812 109.035156 64.097656 109.601562 64.464844 110.148438 C 64.828125 110.695312 65.222656 111.222656 65.640625 111.730469 C 66.058594 112.242188 66.5 112.726562 66.964844 113.191406 C 67.429688 113.660156 67.917969 114.101562 68.425781 114.519531 C 68.933594 114.9375 69.460938 115.328125 70.007812 115.695312 C 70.558594 116.058594 71.121094 116.398438 71.699219 116.707031 C 72.28125 117.019531 72.875 117.300781 73.484375 117.554688 C 74.089844 117.804688 74.710938 118.027344 75.339844 118.222656 C 75.96875 118.414062 76.605469 118.574219 77.25 118.703125 C 77.898438 118.832031 78.546875 118.929688 79.203125 118.996094 C 79.855469 119.0625 80.515625 119.09375 81.171875 119.097656 L 106.179688 119.097656 C 107.976562 119.097656 109.769531 119.171875 111.558594 119.324219 C 113.351562 119.472656 115.132812 119.699219 116.902344 120 C 118.675781 120.304688 120.429688 120.679688 122.167969 121.128906 C 123.90625 121.578125 125.625 122.101562 127.320312 122.695312 C 129.015625 123.292969 130.683594 123.957031 132.324219 124.691406 C 133.960938 125.429688 135.566406 126.234375 137.136719 127.105469 C 138.707031 127.976562 140.242188 128.910156 141.730469 129.914062 C 143.222656 130.914062 144.671875 131.976562 146.074219 133.097656 C 147.476562 134.222656 148.828125 135.402344 150.132812 136.640625 C 151.433594 137.878906 152.679688 139.167969 153.875 140.511719 C 155.070312 141.855469 156.203125 143.246094 157.277344 144.683594 C 158.355469 146.121094 159.367188 147.605469 160.320312 149.128906 C 161.269531 150.652344 162.15625 152.214844 162.972656 153.816406 C 163.792969 155.414062 164.542969 157.046875 165.222656 158.707031 C 165.902344 160.371094 166.511719 162.058594 167.050781 163.773438 C 167.589844 165.488281 168.054688 167.222656 168.445312 168.972656 L 231.496094 452.21875 C 231.65625 452.863281 231.839844 453.550781 232.046875 454.195312 C 232.558594 455.726562 233.125 457.238281 233.753906 458.726562 C 234.382812 460.214844 235.070312 461.675781 235.8125 463.109375 C 236.554688 464.542969 237.355469 465.949219 238.207031 467.320312 C 239.058594 468.691406 239.964844 470.027344 240.921875 471.332031 C 241.878906 472.632812 242.882812 473.894531 243.941406 475.117188 C 244.996094 476.339844 246.097656 477.519531 247.246094 478.65625 C 248.390625 479.792969 249.582031 480.882812 250.816406 481.925781 C 252.046875 482.972656 253.320312 483.964844 254.628906 484.910156 C 255.941406 485.855469 257.285156 486.746094 258.667969 487.585938 C 260.046875 488.425781 261.457031 489.210938 262.898438 489.941406 C 264.339844 490.667969 265.808594 491.339844 267.300781 491.957031 C 268.796875 492.570312 270.3125 493.125 271.847656 493.621094 C 273.386719 494.121094 274.941406 494.554688 276.511719 494.929688 C 278.082031 495.304688 279.667969 495.617188 281.261719 495.871094 C 282.859375 496.121094 284.460938 496.308594 286.070312 496.4375 C 287.683594 496.5625 289.296875 496.625 290.910156 496.625 L 570.386719 496.625 C 573.253906 496.625 576.105469 496.425781 578.949219 496.03125 C 581.789062 495.636719 584.585938 495.046875 587.347656 494.261719 C 590.105469 493.476562 592.796875 492.507812 595.417969 491.351562 C 598.042969 490.195312 600.574219 488.859375 603.015625 487.351562 C 605.453125 485.84375 607.777344 484.175781 609.984375 482.347656 C 612.191406 480.515625 614.265625 478.542969 616.199219 476.425781 C 618.132812 474.308594 619.910156 472.066406 621.535156 469.703125 C 623.160156 467.339844 624.613281 464.875 625.894531 462.308594 C 642.257812 429.554688 675.011719 326.699219 698.089844 280.519531 C 698.679688 279.34375 699.230469 278.148438 699.742188 276.9375 C 700.253906 275.726562 700.730469 274.5 701.164062 273.257812 C 701.597656 272.015625 701.992188 270.761719 702.347656 269.492188 C 702.703125 268.226562 703.015625 266.949219 703.289062 265.664062 C 703.5625 264.375 703.796875 263.082031 703.988281 261.777344 C 704.179688 260.476562 704.328125 259.171875 704.4375 257.859375 C 704.546875 256.546875 704.613281 255.234375 704.636719 253.917969 C 704.660156 252.601562 704.644531 251.289062 704.585938 249.972656 C 704.527344 248.660156 704.425781 247.347656 704.285156 246.039062 C 704.140625 244.730469 703.957031 243.429688 703.730469 242.132812 C 703.507812 240.835938 703.242188 239.546875 702.933594 238.269531 C 702.625 236.988281 702.277344 235.722656 701.890625 234.464844 C 701.503906 233.207031 701.074219 231.960938 700.609375 230.734375 C 700.140625 229.503906 699.636719 228.289062 699.09375 227.089844 C 698.546875 225.890625 697.964844 224.710938 697.347656 223.550781 C 696.726562 222.390625 696.074219 221.25 695.382812 220.132812 C 694.6875 219.011719 693.960938 217.914062 693.199219 216.84375 C 692.441406 215.769531 691.644531 214.722656 690.816406 213.699219 C 689.988281 212.675781 689.128906 211.679688 688.238281 210.714844 C 687.347656 209.746094 686.425781 208.804688 685.472656 207.898438 C 684.523438 206.988281 683.542969 206.109375 682.535156 205.261719 C 681.53125 204.414062 680.496094 203.601562 679.4375 202.820312 C 678.378906 202.039062 677.296875 201.292969 676.191406 200.578125 C 675.085938 199.867188 673.957031 199.191406 672.808594 198.550781 C 671.65625 197.910156 670.488281 197.304688 669.300781 196.738281 C 668.113281 196.171875 666.910156 195.644531 665.6875 195.15625 C 664.46875 194.664062 663.230469 194.214844 661.980469 193.804688 C 660.730469 193.390625 659.46875 193.019531 658.195312 192.691406 C 656.921875 192.359375 655.640625 192.070312 654.347656 191.820312 C 653.054688 191.570312 651.757812 191.363281 650.453125 191.195312 C 649.148438 191.027344 647.835938 190.902344 646.523438 190.820312 C 645.210938 190.738281 643.898438 190.695312 642.582031 190.695312 Z M 642.582031 190.695312 " fill-opacity="1" fill-rule="evenodd"/></g><path fill="#ffffff" d="M 312.769531 520.207031 C 311.425781 520.207031 310.082031 520.242188 308.738281 520.308594 C 307.394531 520.375 306.054688 520.472656 304.714844 520.605469 C 303.375 520.734375 302.042969 520.902344 300.710938 521.097656 C 299.382812 521.296875 298.054688 521.523438 296.738281 521.789062 C 295.417969 522.050781 294.105469 522.34375 292.800781 522.671875 C 291.496094 523 290.203125 523.355469 288.914062 523.746094 C 287.628906 524.136719 286.351562 524.558594 285.085938 525.011719 C 283.820312 525.464844 282.5625 525.949219 281.320312 526.464844 C 280.078125 526.980469 278.851562 527.523438 277.632812 528.097656 C 276.417969 528.671875 275.21875 529.277344 274.03125 529.914062 C 272.847656 530.546875 271.675781 531.210938 270.523438 531.902344 C 269.367188 532.59375 268.234375 533.3125 267.113281 534.058594 C 265.996094 534.804688 264.898438 535.578125 263.816406 536.382812 C 262.738281 537.183594 261.675781 538.007812 260.636719 538.863281 C 259.597656 539.714844 258.578125 540.59375 257.582031 541.496094 C 256.585938 542.402344 255.613281 543.328125 254.664062 544.277344 C 253.710938 545.230469 252.785156 546.203125 251.882812 547.199219 C 250.976562 548.195312 250.101562 549.214844 249.246094 550.253906 C 248.394531 551.292969 247.566406 552.355469 246.765625 553.433594 C 245.964844 554.515625 245.191406 555.613281 244.445312 556.730469 C 243.695312 557.851562 242.976562 558.984375 242.285156 560.140625 C 241.59375 561.292969 240.933594 562.464844 240.296875 563.648438 C 239.664062 564.835938 239.058594 566.035156 238.484375 567.253906 C 237.910156 568.46875 237.363281 569.695312 236.851562 570.941406 C 236.335938 572.183594 235.851562 573.4375 235.398438 574.703125 C 234.945312 575.96875 234.523438 577.246094 234.132812 578.53125 C 233.742188 579.820312 233.386719 581.117188 233.058594 582.421875 C 232.730469 583.726562 232.4375 585.035156 232.175781 586.355469 C 231.914062 587.675781 231.683594 589 231.484375 590.328125 C 231.289062 591.660156 231.125 592.996094 230.992188 594.332031 C 230.859375 595.671875 230.761719 597.011719 230.695312 598.355469 C 230.628906 599.699219 230.597656 601.042969 230.597656 602.386719 C 230.597656 603.734375 230.632812 605.078125 230.695312 606.417969 C 230.761719 607.761719 230.863281 609.105469 230.996094 610.441406 C 231.125 611.78125 231.289062 613.113281 231.488281 614.445312 C 231.6875 615.777344 231.914062 617.101562 232.179688 618.417969 C 232.441406 619.738281 232.734375 621.050781 233.0625 622.355469 C 233.390625 623.660156 233.75 624.953125 234.136719 626.242188 C 234.527344 627.527344 234.949219 628.804688 235.402344 630.070312 C 235.859375 631.335938 236.339844 632.59375 236.855469 633.835938 C 237.371094 635.078125 237.917969 636.304688 238.492188 637.523438 C 239.066406 638.738281 239.671875 639.9375 240.304688 641.125 C 240.9375 642.308594 241.601562 643.480469 242.292969 644.632812 C 242.984375 645.785156 243.703125 646.921875 244.453125 648.039062 C 245.199219 649.160156 245.972656 650.257812 246.773438 651.339844 C 247.574219 652.417969 248.402344 653.476562 249.257812 654.515625 C 250.109375 655.558594 250.988281 656.574219 251.890625 657.570312 C 252.796875 658.566406 253.722656 659.542969 254.671875 660.492188 C 255.625 661.441406 256.597656 662.371094 257.59375 663.273438 C 258.589844 664.175781 259.609375 665.054688 260.648438 665.90625 C 261.6875 666.761719 262.75 667.585938 263.828125 668.386719 C 264.910156 669.1875 266.007812 669.964844 267.128906 670.710938 C 268.246094 671.457031 269.382812 672.175781 270.535156 672.867188 C 271.6875 673.558594 272.859375 674.222656 274.046875 674.855469 C 275.230469 675.488281 276.433594 676.09375 277.648438 676.667969 C 278.863281 677.242188 280.09375 677.785156 281.335938 678.300781 C 282.578125 678.816406 283.832031 679.300781 285.097656 679.753906 C 286.367188 680.207031 287.640625 680.625 288.929688 681.015625 C 290.214844 681.40625 291.511719 681.765625 292.816406 682.09375 C 294.121094 682.417969 295.433594 682.714844 296.753906 682.976562 C 298.070312 683.238281 299.394531 683.46875 300.726562 683.664062 C 302.058594 683.859375 303.390625 684.027344 304.730469 684.15625 C 306.066406 684.289062 307.410156 684.386719 308.753906 684.453125 C 310.09375 684.519531 311.441406 684.550781 312.785156 684.550781 C 314.128906 684.550781 315.472656 684.519531 316.816406 684.453125 C 318.160156 684.386719 319.5 684.285156 320.839844 684.152344 C 322.175781 684.023438 323.511719 683.855469 324.84375 683.660156 C 326.171875 683.460938 327.496094 683.230469 328.816406 682.96875 C 330.136719 682.707031 331.445312 682.410156 332.75 682.085938 C 334.054688 681.757812 335.351562 681.398438 336.636719 681.007812 C 337.925781 680.617188 339.203125 680.195312 340.46875 679.742188 C 341.734375 679.289062 342.988281 678.804688 344.230469 678.289062 C 345.472656 677.773438 346.703125 677.230469 347.917969 676.65625 C 349.132812 676.078125 350.335938 675.472656 351.519531 674.839844 C 352.707031 674.207031 353.875 673.542969 355.027344 672.851562 C 356.183594 672.160156 357.316406 671.441406 358.4375 670.691406 C 359.554688 669.945312 360.652344 669.171875 361.734375 668.371094 C 362.8125 667.566406 363.875 666.742188 364.914062 665.886719 C 365.953125 665.035156 366.96875 664.15625 367.964844 663.253906 C 368.960938 662.347656 369.9375 661.421875 370.886719 660.46875 C 371.835938 659.519531 372.765625 658.546875 373.667969 657.546875 C 374.570312 656.550781 375.449219 655.535156 376.300781 654.492188 C 377.152344 653.453125 377.980469 652.394531 378.78125 651.3125 C 379.582031 650.234375 380.355469 649.132812 381.101562 648.015625 C 381.851562 646.898438 382.570312 645.761719 383.261719 644.605469 C 383.953125 643.453125 384.613281 642.285156 385.246094 641.097656 C 385.882812 639.910156 386.484375 638.710938 387.058594 637.492188 C 387.636719 636.277344 388.179688 635.046875 388.695312 633.804688 C 389.207031 632.5625 389.691406 631.308594 390.144531 630.042969 C 390.597656 628.777344 391.019531 627.5 391.410156 626.210938 C 391.796875 624.925781 392.15625 623.628906 392.484375 622.324219 C 392.808594 621.019531 393.105469 619.707031 393.367188 618.390625 C 393.628906 617.070312 393.859375 615.746094 394.054688 614.414062 C 394.25 613.085938 394.414062 611.75 394.546875 610.410156 C 394.679688 609.074219 394.777344 607.734375 394.84375 606.390625 C 394.910156 605.046875 394.941406 603.703125 394.941406 602.355469 C 394.941406 601.011719 394.90625 599.667969 394.839844 598.328125 C 394.769531 596.984375 394.671875 595.644531 394.539062 594.304688 C 394.40625 592.96875 394.242188 591.632812 394.042969 590.304688 C 393.84375 588.976562 393.613281 587.652344 393.351562 586.332031 C 393.085938 585.015625 392.792969 583.703125 392.464844 582.398438 C 392.136719 581.09375 391.777344 579.800781 391.386719 578.515625 C 390.996094 577.226562 390.574219 575.953125 390.121094 574.6875 C 389.667969 573.421875 389.183594 572.167969 388.667969 570.925781 C 388.152344 569.683594 387.605469 568.457031 387.03125 567.242188 C 386.457031 566.023438 385.851562 564.824219 385.21875 563.640625 C 384.582031 562.453125 383.921875 561.285156 383.226562 560.132812 C 382.535156 558.980469 381.816406 557.84375 381.070312 556.726562 C 380.324219 555.609375 379.546875 554.511719 378.746094 553.429688 C 377.945312 552.351562 377.121094 551.292969 376.265625 550.253906 C 375.414062 549.214844 374.535156 548.195312 373.632812 547.199219 C 372.730469 546.203125 371.800781 545.230469 370.851562 544.28125 C 369.902344 543.332031 368.925781 542.402344 367.929688 541.5 C 366.933594 540.597656 365.917969 539.722656 364.878906 538.867188 C 363.839844 538.015625 362.78125 537.1875 361.699219 536.386719 C 360.621094 535.585938 359.519531 534.8125 358.402344 534.066406 C 357.285156 533.320312 356.148438 532.601562 354.996094 531.910156 C 353.84375 531.21875 352.675781 530.554688 351.488281 529.921875 C 350.304688 529.289062 349.101562 528.683594 347.886719 528.109375 C 346.671875 527.53125 345.445312 526.988281 344.203125 526.472656 C 342.960938 525.957031 341.707031 525.476562 340.441406 525.023438 C 339.175781 524.570312 337.898438 524.144531 336.613281 523.757812 C 335.328125 523.367188 334.03125 523.007812 332.726562 522.679688 C 331.421875 522.351562 330.113281 522.058594 328.792969 521.792969 C 327.476562 521.53125 326.152344 521.300781 324.820312 521.105469 C 323.492188 520.90625 322.160156 520.742188 320.820312 520.609375 C 319.484375 520.476562 318.140625 520.375 316.800781 520.308594 C 315.457031 520.242188 314.113281 520.210938 312.769531 520.207031 Z M 312.769531 644.328125 C 311.394531 644.328125 310.023438 644.261719 308.65625 644.125 C 307.292969 643.992188 305.933594 643.789062 304.585938 643.523438 C 303.238281 643.253906 301.910156 642.921875 300.59375 642.523438 C 299.28125 642.121094 297.988281 641.660156 296.71875 641.136719 C 295.449219 640.609375 294.207031 640.023438 292.996094 639.375 C 291.785156 638.726562 290.609375 638.023438 289.464844 637.257812 C 288.324219 636.496094 287.222656 635.679688 286.160156 634.808594 C 285.097656 633.9375 284.082031 633.015625 283.109375 632.042969 C 282.140625 631.074219 281.21875 630.054688 280.347656 628.996094 C 279.472656 627.933594 278.65625 626.832031 277.894531 625.6875 C 277.128906 624.546875 276.425781 623.371094 275.777344 622.160156 C 275.128906 620.945312 274.542969 619.707031 274.015625 618.4375 C 273.492188 617.167969 273.027344 615.878906 272.628906 614.5625 C 272.230469 613.25 271.898438 611.917969 271.628906 610.570312 C 271.359375 609.222656 271.160156 607.867188 271.023438 606.5 C 270.890625 605.132812 270.820312 603.761719 270.820312 602.386719 C 270.820312 601.015625 270.886719 599.644531 271.023438 598.277344 C 271.15625 596.910156 271.359375 595.550781 271.625 594.203125 C 271.894531 592.855469 272.226562 591.527344 272.625 590.210938 C 273.023438 588.898438 273.484375 587.605469 274.011719 586.335938 C 274.535156 585.066406 275.121094 583.828125 275.769531 582.613281 C 276.417969 581.402344 277.121094 580.226562 277.886719 579.082031 C 278.648438 577.941406 279.464844 576.839844 280.335938 575.777344 C 281.207031 574.714844 282.128906 573.699219 283.101562 572.726562 C 284.070312 571.753906 285.085938 570.832031 286.148438 569.960938 C 287.210938 569.089844 288.3125 568.273438 289.453125 567.507812 C 290.597656 566.746094 291.773438 566.039062 292.984375 565.390625 C 294.195312 564.742188 295.433594 564.15625 296.703125 563.628906 C 297.972656 563.105469 299.265625 562.640625 300.578125 562.242188 C 301.894531 561.84375 303.222656 561.507812 304.570312 561.242188 C 305.917969 560.972656 307.277344 560.769531 308.644531 560.636719 C 310.011719 560.5 311.378906 560.433594 312.753906 560.433594 C 314.128906 560.433594 315.496094 560.5 316.863281 560.632812 C 318.230469 560.765625 319.589844 560.96875 320.9375 561.234375 C 322.285156 561.503906 323.617188 561.835938 324.929688 562.234375 C 326.246094 562.632812 327.535156 563.09375 328.804688 563.617188 C 330.074219 564.144531 331.316406 564.730469 332.527344 565.375 C 333.738281 566.023438 334.917969 566.730469 336.058594 567.492188 C 337.203125 568.253906 338.304688 569.070312 339.367188 569.941406 C 340.429688 570.8125 341.445312 571.734375 342.417969 572.703125 C 343.390625 573.675781 344.3125 574.691406 345.183594 575.753906 C 346.054688 576.816406 346.871094 577.917969 347.636719 579.058594 C 348.398438 580.199219 349.105469 581.375 349.753906 582.585938 C 350.402344 583.800781 350.988281 585.039062 351.515625 586.308594 C 352.042969 587.578125 352.503906 588.867188 352.90625 590.183594 C 353.304688 591.496094 353.636719 592.828125 353.90625 594.175781 C 354.175781 595.523438 354.378906 596.878906 354.511719 598.246094 C 354.648438 599.613281 354.714844 600.984375 354.71875 602.355469 C 354.714844 603.730469 354.648438 605.101562 354.511719 606.46875 C 354.378906 607.835938 354.175781 609.191406 353.90625 610.539062 C 353.640625 611.886719 353.304688 613.21875 352.90625 614.535156 C 352.507812 615.847656 352.042969 617.140625 351.519531 618.410156 C 350.992188 619.679688 350.40625 620.917969 349.757812 622.128906 C 349.109375 623.34375 348.40625 624.519531 347.640625 625.660156 C 346.878906 626.804688 346.0625 627.90625 345.1875 628.96875 C 344.316406 630.03125 343.398438 631.046875 342.425781 632.019531 C 341.453125 632.992188 340.4375 633.914062 339.375 634.785156 C 338.3125 635.65625 337.210938 636.476562 336.070312 637.238281 C 334.929688 638.003906 333.75 638.710938 332.539062 639.359375 C 331.328125 640.003906 330.089844 640.59375 328.820312 641.121094 C 327.550781 641.648438 326.257812 642.109375 324.945312 642.507812 C 323.628906 642.910156 322.300781 643.246094 320.953125 643.511719 C 319.605469 643.78125 318.246094 643.984375 316.878906 644.121094 C 315.511719 644.257812 314.144531 644.324219 312.769531 644.328125 Z M 312.769531 644.328125 " fill-opacity="1" fill-rule="evenodd"/><path fill="#ffffff" d="M 541.792969 520.207031 C 540.445312 520.207031 539.101562 520.242188 537.757812 520.308594 C 536.417969 520.375 535.074219 520.472656 533.738281 520.605469 C 532.398438 520.734375 531.066406 520.902344 529.734375 521.097656 C 528.402344 521.296875 527.078125 521.523438 525.761719 521.789062 C 524.441406 522.050781 523.128906 522.34375 521.824219 522.671875 C 520.519531 523 519.222656 523.355469 517.9375 523.746094 C 516.652344 524.136719 515.375 524.558594 514.109375 525.011719 C 512.839844 525.464844 511.585938 525.949219 510.34375 526.464844 C 509.101562 526.980469 507.871094 527.523438 506.65625 528.097656 C 505.441406 528.671875 504.242188 529.277344 503.054688 529.914062 C 501.867188 530.546875 500.699219 531.210938 499.546875 531.902344 C 498.390625 532.59375 497.253906 533.3125 496.136719 534.058594 C 495.019531 534.804688 493.921875 535.578125 492.839844 536.382812 C 491.761719 537.183594 490.699219 538.007812 489.660156 538.863281 C 488.621094 539.714844 487.601562 540.59375 486.605469 541.496094 C 485.609375 542.402344 484.636719 543.328125 483.683594 544.277344 C 482.734375 545.230469 481.808594 546.203125 480.902344 547.199219 C 480 548.195312 479.121094 549.214844 478.269531 550.253906 C 477.417969 551.292969 476.589844 552.355469 475.789062 553.433594 C 474.988281 554.515625 474.214844 555.613281 473.464844 556.730469 C 472.71875 557.851562 472 558.984375 471.308594 560.140625 C 470.617188 561.292969 469.953125 562.464844 469.320312 563.648438 C 468.6875 564.835938 468.082031 566.035156 467.507812 567.253906 C 466.933594 568.46875 466.386719 569.695312 465.875 570.941406 C 465.359375 572.183594 464.875 573.4375 464.421875 574.703125 C 463.96875 575.96875 463.546875 577.246094 463.15625 578.53125 C 462.765625 579.820312 462.40625 581.117188 462.082031 582.421875 C 461.753906 583.726562 461.460938 585.035156 461.199219 586.355469 C 460.9375 587.675781 460.707031 589 460.507812 590.328125 C 460.3125 591.660156 460.148438 592.996094 460.015625 594.332031 C 459.882812 595.671875 459.785156 597.011719 459.71875 598.355469 C 459.652344 599.699219 459.621094 601.042969 459.621094 602.386719 C 459.621094 603.734375 459.652344 605.078125 459.71875 606.417969 C 459.785156 607.761719 459.886719 609.105469 460.015625 610.441406 C 460.148438 611.78125 460.3125 613.113281 460.511719 614.445312 C 460.707031 615.777344 460.9375 617.101562 461.199219 618.417969 C 461.464844 619.738281 461.757812 621.050781 462.085938 622.355469 C 462.410156 623.660156 462.769531 624.953125 463.160156 626.242188 C 463.550781 627.527344 463.972656 628.804688 464.425781 630.070312 C 464.878906 631.335938 465.363281 632.59375 465.878906 633.835938 C 466.394531 635.078125 466.9375 636.304688 467.515625 637.523438 C 468.089844 638.738281 468.695312 639.9375 469.328125 641.125 C 469.960938 642.308594 470.625 643.480469 471.316406 644.632812 C 472.007812 645.785156 472.726562 646.921875 473.476562 648.039062 C 474.222656 649.160156 474.996094 650.257812 475.796875 651.339844 C 476.597656 652.417969 477.425781 653.476562 478.28125 654.515625 C 479.132812 655.558594 480.011719 656.574219 480.914062 657.570312 C 481.816406 658.566406 482.746094 659.542969 483.695312 660.492188 C 484.648438 661.441406 485.621094 662.371094 486.617188 663.273438 C 487.613281 664.175781 488.632812 665.054688 489.671875 665.90625 C 490.710938 666.761719 491.773438 667.585938 492.851562 668.386719 C 493.933594 669.1875 495.03125 669.960938 496.148438 670.710938 C 497.269531 671.457031 498.40625 672.175781 499.558594 672.867188 C 500.710938 673.558594 501.882812 674.222656 503.066406 674.855469 C 504.253906 675.488281 505.453125 676.09375 506.671875 676.667969 C 507.886719 677.242188 509.117188 677.785156 510.359375 678.300781 C 511.601562 678.816406 512.855469 679.300781 514.121094 679.753906 C 515.386719 680.207031 516.664062 680.625 517.953125 681.015625 C 519.238281 681.40625 520.535156 681.765625 521.839844 682.09375 C 523.144531 682.417969 524.457031 682.714844 525.773438 682.976562 C 527.09375 683.238281 528.417969 683.46875 529.75 683.664062 C 531.078125 683.859375 532.414062 684.027344 533.753906 684.15625 C 535.089844 684.289062 536.433594 684.386719 537.773438 684.453125 C 539.117188 684.519531 540.460938 684.550781 541.808594 684.550781 C 543.152344 684.550781 544.496094 684.519531 545.839844 684.453125 C 547.183594 684.386719 548.523438 684.285156 549.863281 684.152344 C 551.199219 684.023438 552.535156 683.855469 553.863281 683.660156 C 555.195312 683.460938 556.519531 683.230469 557.839844 682.96875 C 559.15625 682.707031 560.46875 682.410156 561.773438 682.085938 C 563.078125 681.757812 564.375 681.398438 565.660156 681.007812 C 566.949219 680.617188 568.222656 680.195312 569.492188 679.742188 C 570.757812 679.289062 572.011719 678.804688 573.253906 678.289062 C 574.496094 677.773438 575.726562 677.230469 576.941406 676.65625 C 578.15625 676.078125 579.355469 675.472656 580.542969 674.839844 C 581.730469 674.207031 582.898438 673.542969 584.050781 672.851562 C 585.207031 672.160156 586.339844 671.441406 587.460938 670.691406 C 588.578125 669.945312 589.675781 669.171875 590.757812 668.371094 C 591.835938 667.566406 592.894531 666.742188 593.933594 665.886719 C 594.976562 665.035156 595.992188 664.15625 596.988281 663.253906 C 597.984375 662.347656 598.957031 661.421875 599.910156 660.46875 C 600.859375 659.519531 601.785156 658.546875 602.691406 657.546875 C 603.59375 656.550781 604.472656 655.535156 605.324219 654.492188 C 606.175781 653.453125 607.003906 652.394531 607.804688 651.3125 C 608.605469 650.234375 609.378906 649.132812 610.125 648.015625 C 610.871094 646.898438 611.59375 645.761719 612.28125 644.605469 C 612.972656 643.453125 613.636719 642.285156 614.269531 641.097656 C 614.902344 639.910156 615.507812 638.710938 616.082031 637.492188 C 616.65625 636.277344 617.203125 635.046875 617.714844 633.804688 C 618.230469 632.5625 618.714844 631.308594 619.167969 630.042969 C 619.621094 628.777344 620.042969 627.5 620.429688 626.210938 C 620.820312 624.925781 621.179688 623.628906 621.507812 622.324219 C 621.832031 621.019531 622.125 619.707031 622.390625 618.390625 C 622.652344 617.070312 622.878906 615.746094 623.078125 614.414062 C 623.273438 613.085938 623.4375 611.75 623.570312 610.410156 C 623.703125 609.074219 623.800781 607.734375 623.867188 606.390625 C 623.929688 605.046875 623.964844 603.703125 623.964844 602.355469 C 623.960938 601.011719 623.929688 599.667969 623.863281 598.324219 C 623.796875 596.984375 623.695312 595.644531 623.5625 594.304688 C 623.429688 592.96875 623.265625 591.632812 623.066406 590.304688 C 622.871094 588.972656 622.640625 587.648438 622.375 586.332031 C 622.113281 585.011719 621.820312 583.703125 621.492188 582.398438 C 621.164062 581.09375 620.804688 579.796875 620.414062 578.511719 C 620.023438 577.226562 619.601562 575.949219 619.148438 574.683594 C 618.695312 573.417969 618.210938 572.164062 617.695312 570.921875 C 617.179688 569.679688 616.636719 568.453125 616.058594 567.234375 C 615.484375 566.019531 614.878906 564.820312 614.246094 563.636719 C 613.613281 562.449219 612.949219 561.28125 612.257812 560.128906 C 611.566406 558.972656 610.847656 557.839844 610.101562 556.722656 C 609.351562 555.605469 608.578125 554.503906 607.777344 553.425781 C 606.976562 552.34375 606.148438 551.285156 605.296875 550.246094 C 604.441406 549.207031 603.566406 548.191406 602.660156 547.195312 C 601.757812 546.199219 600.832031 545.226562 599.882812 544.273438 C 598.929688 543.324219 597.957031 542.398438 596.960938 541.496094 C 595.964844 540.59375 594.945312 539.714844 593.90625 538.859375 C 592.867188 538.007812 591.808594 537.179688 590.726562 536.378906 C 589.648438 535.578125 588.550781 534.804688 587.429688 534.058594 C 586.3125 533.3125 585.179688 532.59375 584.023438 531.902344 C 582.871094 531.210938 581.703125 530.546875 580.515625 529.914062 C 579.332031 529.28125 578.128906 528.675781 576.914062 528.101562 C 575.699219 527.527344 574.46875 526.980469 573.230469 526.46875 C 571.988281 525.953125 570.734375 525.46875 569.464844 525.015625 C 568.199219 524.5625 566.925781 524.140625 565.636719 523.75 C 564.351562 523.359375 563.054688 523 561.753906 522.675781 C 560.449219 522.347656 559.136719 522.054688 557.816406 521.789062 C 556.5 521.527344 555.175781 521.296875 553.847656 521.101562 C 552.515625 520.902344 551.183594 520.738281 549.84375 520.605469 C 548.507812 520.472656 547.164062 520.375 545.824219 520.308594 C 544.480469 520.242188 543.136719 520.207031 541.792969 520.207031 Z M 541.792969 644.328125 C 540.417969 644.328125 539.046875 644.261719 537.679688 644.125 C 536.3125 643.992188 534.957031 643.789062 533.609375 643.523438 C 532.261719 643.253906 530.929688 642.921875 529.617188 642.523438 C 528.300781 642.121094 527.011719 641.660156 525.742188 641.136719 C 524.472656 640.609375 523.230469 640.023438 522.019531 639.375 C 520.808594 638.726562 519.632812 638.023438 518.488281 637.257812 C 517.347656 636.496094 516.246094 635.679688 515.183594 634.808594 C 514.121094 633.9375 513.105469 633.015625 512.132812 632.042969 C 511.160156 631.074219 510.242188 630.054688 509.367188 628.996094 C 508.496094 627.933594 507.679688 626.832031 506.917969 625.6875 C 506.152344 624.546875 505.449219 623.371094 504.800781 622.160156 C 504.152344 620.945312 503.566406 619.707031 503.039062 618.4375 C 502.511719 617.167969 502.050781 615.878906 501.652344 614.5625 C 501.253906 613.25 500.917969 611.917969 500.652344 610.570312 C 500.382812 609.222656 500.183594 607.867188 500.046875 606.5 C 499.910156 605.132812 499.84375 603.761719 499.84375 602.386719 C 499.84375 601.015625 499.910156 599.644531 500.046875 598.277344 C 500.179688 596.910156 500.378906 595.550781 500.648438 594.203125 C 500.917969 592.859375 501.25 591.527344 501.648438 590.210938 C 502.046875 588.898438 502.507812 587.605469 503.035156 586.335938 C 503.558594 585.066406 504.144531 583.828125 504.792969 582.613281 C 505.441406 581.402344 506.144531 580.226562 506.90625 579.082031 C 507.671875 577.941406 508.488281 576.839844 509.359375 575.777344 C 510.230469 574.714844 511.152344 573.699219 512.121094 572.726562 C 513.09375 571.753906 514.109375 570.832031 515.171875 569.960938 C 516.234375 569.089844 517.335938 568.273438 518.476562 567.507812 C 519.617188 566.746094 520.796875 566.039062 522.007812 565.390625 C 523.21875 564.742188 524.457031 564.15625 525.726562 563.628906 C 526.996094 563.105469 528.289062 562.640625 529.601562 562.242188 C 530.917969 561.84375 532.246094 561.507812 533.59375 561.242188 C 534.941406 560.972656 536.296875 560.769531 537.664062 560.636719 C 539.03125 560.5 540.402344 560.433594 541.777344 560.433594 C 543.148438 560.433594 544.519531 560.5 545.886719 560.632812 C 547.253906 560.765625 548.613281 560.96875 549.960938 561.234375 C 551.308594 561.503906 552.636719 561.835938 553.953125 562.234375 C 555.265625 562.632812 556.558594 563.09375 557.828125 563.617188 C 559.097656 564.144531 560.339844 564.730469 561.550781 565.378906 C 562.761719 566.023438 563.9375 566.730469 565.082031 567.492188 C 566.222656 568.253906 567.328125 569.070312 568.390625 569.941406 C 569.449219 570.8125 570.46875 571.734375 571.441406 572.703125 C 572.410156 573.675781 573.332031 574.691406 574.207031 575.753906 C 575.078125 576.816406 575.894531 577.917969 576.660156 579.058594 C 577.421875 580.199219 578.128906 581.375 578.777344 582.585938 C 579.425781 583.800781 580.011719 585.039062 580.539062 586.308594 C 581.066406 587.578125 581.527344 588.867188 581.925781 590.183594 C 582.328125 591.496094 582.660156 592.828125 582.929688 594.175781 C 583.199219 595.523438 583.398438 596.878906 583.535156 598.246094 C 583.671875 599.613281 583.738281 600.984375 583.738281 602.355469 C 583.738281 603.730469 583.671875 605.101562 583.535156 606.46875 C 583.398438 607.835938 583.199219 609.191406 582.929688 610.539062 C 582.660156 611.886719 582.328125 613.21875 581.929688 614.535156 C 581.527344 615.847656 581.066406 617.140625 580.539062 618.410156 C 580.015625 619.679688 579.429688 620.917969 578.78125 622.128906 C 578.132812 623.34375 577.425781 624.519531 576.664062 625.660156 C 575.902344 626.804688 575.082031 627.90625 574.210938 628.96875 C 573.339844 630.03125 572.417969 631.046875 571.449219 632.019531 C 570.476562 632.992188 569.460938 633.914062 568.398438 634.785156 C 567.335938 635.65625 566.234375 636.476562 565.09375 637.238281 C 563.949219 638.003906 562.773438 638.710938 561.5625 639.359375 C 560.351562 640.003906 559.113281 640.59375 557.84375 641.121094 C 556.574219 641.648438 555.28125 642.109375 553.96875 642.507812 C 552.652344 642.910156 551.324219 643.246094 549.976562 643.511719 C 548.628906 643.78125 547.269531 643.984375 545.902344 644.121094 C 544.535156 644.257812 543.164062 644.324219 541.792969 644.328125 Z M 541.792969 644.328125 " fill-opacity="1" fill-rule="evenodd"/><g fill="#000000" fill-opacity="1"><g transform="translate(740.773454, 764.899991)"><g/></g></g><g fill="#000000" fill-opacity="1"><g transform="translate(743.248438, 764.899991)"><g/></g></g><g fill="#000000" fill-opacity="1"><g transform="translate(745.723421, 764.899991)"><g/></g></g><g fill="#000000" fill-opacity="1"><g transform="translate(748.198404, 764.899991)"><g/></g></g><g fill="#000000" fill-opacity="1"><g transform="translate(750.673387, 764.899991)"><g/></g></g><g fill="#000000" fill-opacity="1"><g transform="translate(753.148371, 764.899991)"><g/></g></g><g fill="#000000" fill-opacity="1"><g transform="translate(755.623354, 764.899991)"><g/></g></g><g fill="#000000" fill-opacity="1"><g transform="translate(758.098337, 764.899991)"><g/></g></g><g fill="#000000" fill-opacity="1"><g transform="translate(760.573321, 764.899991)"><g/></g></g><g fill="#000000" fill-opacity="1"><g transform="translate(763.048304, 764.899991)"><g/></g></g><g fill="#000000" fill-opacity="1"><g transform="translate(765.523287, 764.899991)"><g/></g></g></svg>